<?xml version="1.0"?><svg width="640" height="480" xmlns="http://www.w3.org/2000/svg">
 <title>dirt</title>
 <g>
  <title>Layer 1</title>
  <path d="m104.042,248.483994c-5.200996,11.192001 -9.742996,15.727982 -22.710999,17.882004c-13.770004,2.28598 -10.931999,9.882996 -12.323997,23.104004c-0.823006,7.815979 -29.732002,21.642975 -38.126003,24.516998c-13.460001,4.606995 -28.623001,14.66098 -28.474,32.151978c0.19,22.304016 28.422,18.562012 42.371999,19.697021c15.524002,1.263977 26.346001,-0.962006 41.757004,-4.386017c4.842995,-1.075989 15.416,-5.697998 20.346001,-4.520996c6.211998,1.481995 9.211998,10.886993 16.084,11.615997c18.804993,1.996002 37.608994,3.990997 56.414001,5.987c15.030991,1.596008 32.345993,-6.871979 46.71199,-10.819c15.429001,-4.238983 22.285004,4.859009 37.49501,7.976013c17.337982,3.552002 38.975983,0 56.669006,0c15.983978,0 22.672974,-6.063995 36.487,-14.884003c8.242981,-5.261993 -2.259003,-28.562988 -7.658997,-35.901001c-11.573029,-15.726013 -13.951019,-21.972992 -32.230011,-26.09201c-20.524017,-4.623993 -33.656006,-4.006989 -46.052002,-20.90799c-6.94101,-9.466003 -20.5,-24.225006 -31.057007,-29.400009c-1.347,-0.659988 -6.210999,4.117004 -7.386002,3.410004c-1.914993,-1.151993 -2.520996,-5.343002 -4.541,-6.248993c-8.475998,-3.803009 -22.985992,-12.046005 -33.457993,-17.404007c-20.947006,-10.718002 -28.227005,-0.919998 -38.652008,18.547012c-1.080994,-6.906998 -1.803986,-13.929993 -1.702988,-21.014999c-12.447998,2.029007 -19.100998,5.152008 -28.389015,9.658005c-3.875992,1.880997 -10.458,-0.772003 -12.86599,3.291992c-2.704002,4.563004 -5.734001,9.893005 -8.708,13.740997" id="path17"/>
  <path d="m104.608002,351.25c1.743996,-18.731995 4.917,-30.441986 12.491997,-47.696014c-1.324997,6.247009 -2.650002,12.494019 -3.975998,18.741028c3.028999,-4.166016 6.058998,-8.332001 9.087997,-12.498016c-1.709999,6.380005 -7.656998,15.442993 -7.950996,21.580994c-0.453003,9.438019 6.243996,22.625 8.776001,31.800995c1.038994,3.765015 27.037003,3.604004 30.970993,3.968018c19.835007,1.837006 31.28801,2.125 49.964005,-2.557007c24.289001,-6.087982 25.322998,-5.524994 28.957993,-30.938995c4.444,14.066986 4.151001,23.109985 19.872009,26.682007c0.304001,-9.373993 2.839996,-17.244019 5.678009,-26.115021c0.315002,12.337006 -0.541016,20.337006 5.837982,30.763c2.938019,4.802002 24.192017,1.403015 29.390015,1.360016c5.375,-0.045013 64.298004,2.979004 59.812988,-15.373993c-5.108002,-20.903015 -11.906982,-45.995026 -35.533997,-50.723999c-11.613007,-2.324005 -25.514008,-7.60202 -37.365997,-7.479004c-11.477997,0.118988 -21.037994,4.457977 -32.931,3.410004c8.812012,-3.196014 17.692993,-5.894012 26.687988,-8.516998c-10.608002,-13.139008 -29.912994,-45.200012 -47.124985,-30.657013c-3.098999,-11.063004 -2.156006,-13.541 -12.692001,-17.324005c-9.706009,-3.483994 -17.294006,-7.119995 -26.167007,-12.396988c-17.820999,-10.601013 -27.515991,15.127991 -35.524994,28.578995c-1.322998,-9.462997 -2.645996,-18.925995 -3.970001,-28.389008c-24.797005,4.274002 -34.040001,11.862 -46.845001,33.218994c-3.68,6.137024 -7.509003,5.248016 -13.909004,8.233002c-13.522995,6.308014 -12.257996,2.368011 -14.176994,20.104004c-2.248001,20.77002 -76.794002,31.373016 -63.771003,58.588013c8.429,17.613007 26.565001,12.419006 45.225001,13.645996c14.551998,0.957001 -0.949001,-31.592987 -5.320011,-36.695984c18.601997,4.447998 16.291008,21.454987 15.897011,36.334991c12.870003,-3.216003 25.738998,-6.432007 38.609001,-9.64801" id="path19" fill="#D59758"/>
  <path d="m364.085999,367.717987c5.470001,-0.904999 20.121002,-2.88501 23.848999,-6.820007c10.028015,-10.589996 -9.346985,-43.367004 -20.904999,-46.408997c-29.423004,-7.742981 -36.187988,5.511017 -42.76001,32.891998c-5.858978,24.409027 27.537018,22.936005 39.81601,20.337006" id="path31"/>
  <path d="m335.131989,363.17099c-7.565002,-12.335999 -5.700989,-43.47699 12.492004,-48.261993c16.643005,-4.377014 22.148987,16.113983 32.079987,22.712006c6.022003,4.000977 9.152008,9.832977 4.826019,17.03299c-7.369995,12.268005 -37.721985,8.516998 -49.39801,8.516998" id="path33" fill="#D59758"/>
  <path d="m314.122009,383.609985c-3.696991,-1.328003 -12.217987,-3.634003 -14.76001,-6.809998c-7.404999,-9.248993 5.399017,-34.631989 16.413025,-34.631989c24.087982,0 26.68399,4.333984 32.633972,27.066986c4.928009,18.828003 -26.511993,15.622009 -34.286987,14.375" id="path35"/>
  <path d="m338.536011,379.074005c20.062988,-22.083984 -18.28299,-45.988007 -32.36499,-18.740997c-10.130035,19.600006 15.484985,18.740997 32.36499,18.740997" id="path37" fill="#D59758"/>
  <path d="m109.720001,226.337006c0.191002,6.824005 -2.664001,13.284012 -7.952003,17.600006c2.625999,-5.425018 6.512001,-13.224014 7.952003,-17.600006" id="path43"/>
  <path d="m242.013,247.341003c-1.653,2.979004 -3.307007,6.584 -3.975998,9.087982c-0.567001,-0.187988 -0.755997,0.002014 -0.565002,0.571014c2.895004,-2.824997 4.985001,-7.167007 5.677994,-11.927002c-0.287994,0.887009 -1.853989,2.820999 -1.136993,2.268005" id="path49" fill="#7A9999"/>
  <path d="m291.97699,282.549988c-1.019989,0.992004 -1.654999,2.437988 -2.838989,2.838989c4.79599,1.018005 9.953003,2.344025 14.765991,3.404999c-3.915985,-1.679962 -8.156982,-4.088989 -11.927002,-6.243988" id="path103"/>
  <path d="m351.028015,371.687988c-0.393982,1.390015 -0.587982,2.670013 -1.136993,3.976013c4.221008,-1.131012 9.056,-2.419006 13.057983,-3.976013c-3.679993,0.06601 -9.636017,-0.088989 -11.92099,0" id="path105"/>
  <path d="m235.770004,364.878998c-5.488998,1.511993 -10.979004,3.024017 -16.468002,4.536011c7.382004,-0.756012 14.763992,-1.513 22.145996,-2.269012c-1.893005,-0.755005 -3.785995,-1.510986 -5.677994,-2.266998" id="path107"/>
  <path d="m104.608002,359.766998c-6.848999,2.479004 -14.405998,3.835999 -21.575005,5.678009c8.609001,-1.141998 17.434006,-1.976013 26.121002,-2.83902c-1.273003,-0.421997 -3.898003,-2.513977 -4.545998,-2.838989" id="path109"/>
  <path d="m66,285.955994c-1.831001,6.514008 -8.535,8.817993 -14.759998,11.92099c4.862999,-3.59198 10.441998,-7.848969 14.759998,-11.92099" id="path111"/>
  <path d="m0.139,348.411987c2.407,3.920013 4.185,8.368988 6.244,12.485992c-5.138,-2.511993 -6.925,-7.324982 -6.244,-12.485992" id="path113"/>
 </g>
</svg>